<?xml version="1.0" encoding="utf-8"?>
<svg viewBox="0 0 300 300" xmlns="http://www.w3.org/2000/svg">
  <path fill-rule="evenodd" clip-rule="evenodd" d="M150.018 0C180.106 0 204.496 25.2157 204.496 56.3208C204.496 87.4258 180.106 112.641 150.018 112.641C119.931 112.641 95.5409 87.4258 95.5409 56.3208C95.5409 25.2157 119.931 0 150.018 0ZM59.0074 289.239C34.6663 270.957 29.2704 235.735 46.9552 210.571C64.6399 185.406 98.7083 179.828 123.049 198.111C147.391 216.394 152.786 251.615 135.102 276.78C117.417 301.945 83.3483 307.523 59.0074 289.239ZM253.258 210.571C270.943 235.735 265.548 270.957 241.206 289.239C216.865 307.523 182.796 301.945 165.112 276.78C147.427 251.615 152.823 216.394 177.164 198.111C201.505 179.828 235.574 185.406 253.258 210.571ZM2.68104 110.394C11.9785 80.812 42.7122 64.6224 71.3268 74.2345C99.9414 83.8465 115.601 115.62 106.304 145.203C97.0062 174.785 66.2723 190.975 37.6578 181.363C9.04317 171.751 -6.6164 139.978 2.68104 110.394ZM228.673 74.2345C257.289 64.6224 288.022 80.812 297.319 110.394C306.616 139.978 290.957 171.751 262.343 181.363C233.727 190.975 202.994 174.785 193.697 145.203C184.399 115.62 200.059 83.8465 228.673 74.2345Z" fill="currentColor"/>
</svg>
